# xmcd
#
# Track frame offsets:
#	150
#	13353
#	24672
#	38252
#	51210
#	62507
#	73208
#	87726
#	99490
#	112412
#	126776
#	139837
#	151824
#	166469
#	180922
#	194433
#	207722
#	221340
#	234823
#	246492
#
# Disc length: 3496 seconds
#
# Revision: 1
# Processed by: cddbd v1.5.2PL0 Copyright (c) Steve Scherf et al.
# Submitted via: audiograbber 1.83.01
#
DISCID=240da614
DTITLE=Bobby G Rice - Timeless
DYEAR=2006
DGENRE=Crossover
TTITLE0=You Lay So Easy On My Mind
TTITLE1=Sugar Shack
TTITLE2=In Case Of Fire
TTITLE3=Crazy
TTITLE4=Pick Me Up On Your Way Down
TTITLE5=Hello Darlin'
TTITLE6=I Think I Rode The Bull
TTITLE7=I Miss You Already
TTITLE8=Mountain Of Love
TTITLE9=Somewhere Over The Rainbow
TTITLE10=Crystal Chandeliers
TTITLE11=Who Changed The Feelin'
TTITLE12=Juanita's Guitar
TTITLE13=The Love She Offered You
TTITLE14=Pardon My French
TTITLE15=You Are My Special Angel
TTITLE16=Midnight Special
TTITLE17=Right Or Wrong
TTITLE18=Freda Comes, Freda Goes
TTITLE19=Silk On Silk
EXTD=
EXTT0=ASCAP
EXTT1=BMI
EXTT2=ASCAP
EXTT3=BMI
EXTT4=BMI
EXTT5=BMI
EXTT6=ASCAP
EXTT7=BMI
EXTT8=
EXTT9=ASCAP
EXTT10=BMI
EXTT11=ASCAP
EXTT12=BMI
EXTT13=BMI
EXTT14=ASCAP
EXTT15=BMI
EXTT16=BMI
EXTT17=ASCAP
EXTT18=ASCAP
EXTT19=ASCAP
PLAYORDER=
